<svg width="24" height="26" viewBox="0 0 24 26" fill="none" xmlns="http://www.w3.org/2000/svg">
<g filter="url(#filter0_d_0_38)">
<path fill-rule="evenodd" clip-rule="evenodd" d="M17.6687 4.32548C16.9307 3.58614 16.0527 2.99991 15.0854 2.60073C14.1181 2.20155 13.0808 1.99738 12.0337 2.00003C7.64281 2.00003 4.06833 5.55666 4.06656 9.92847C4.06656 11.3257 4.43305 12.6893 5.12967 13.8923L4 18L8.22318 16.8969C9.39135 17.5298 10.7001 17.8616 12.0302 17.8622H12.0337C16.4237 17.8622 19.9982 14.3056 20 9.93377C20.003 8.89203 19.7985 7.86002 19.3984 6.8974C18.9982 5.93478 18.4104 5.06063 17.6687 4.32548ZM12.0337 16.5242H12.031C10.845 16.5243 9.68086 16.2067 8.66067 15.6048L8.41929 15.4617L5.91325 16.1161L6.58147 13.6847L6.4244 13.4356C5.76132 12.385 5.4103 11.1692 5.41187 9.92847C5.41364 6.29501 8.3838 3.33895 12.0364 3.33895C12.9062 3.33703 13.7679 3.50683 14.5714 3.83853C15.3749 4.17023 16.1043 4.65725 16.7174 5.27138C17.3339 5.88259 17.8224 6.60933 18.1549 7.4096C18.4875 8.20986 18.6573 9.06779 18.6547 9.93377C18.6529 13.5672 15.6827 16.5242 12.0337 16.5242ZM15.6659 11.588C15.4662 11.4882 14.4883 11.0095 14.3055 10.9433C14.1236 10.877 13.9913 10.8443 13.8582 11.0422C13.7251 11.24 13.3435 11.686 13.2273 11.8185C13.111 11.951 12.9948 11.9669 12.796 11.868C12.5972 11.7691 11.9556 11.5597 11.1951 10.885C10.6032 10.3595 10.2039 9.71121 10.0876 9.51249C9.97137 9.31377 10.0752 9.2069 10.1755 9.10799C10.2651 9.01967 10.3743 8.87659 10.4736 8.76089C10.573 8.64519 10.6059 8.56305 10.6724 8.43057C10.739 8.29809 10.7061 8.1824 10.6556 8.08348C10.6059 7.98368 10.2074 7.00863 10.0415 6.61207C9.88085 6.22788 9.71668 6.27911 9.59422 6.27381C9.46739 6.26865 9.34046 6.26629 9.21352 6.26674C9.11258 6.2693 9.01327 6.29259 8.9218 6.33515C8.83033 6.3777 8.74868 6.4386 8.68196 6.51404C8.49916 6.71276 7.98535 7.19145 7.98535 8.1665C7.98535 9.14155 8.69883 10.0839 8.79821 10.2164C8.8976 10.3489 10.2021 12.3493 12.1988 13.2078C12.6744 13.4118 13.0454 13.5337 13.3338 13.6255C13.8103 13.7766 14.2442 13.7545 14.5877 13.7041C14.9701 13.6476 15.7653 13.2254 15.9312 12.7626C16.0971 12.2999 16.0971 11.9033 16.0475 11.8203C15.9978 11.7373 15.8638 11.6869 15.6659 11.588Z" fill="#E4E5EA"/>
</g>
<defs>
<filter id="filter0_d_0_38" x="-2" y="0" width="28" height="28" filterUnits="userSpaceOnUse" color-interpolation-filters="sRGB">
<feFlood flood-opacity="0" result="BackgroundImageFix"/>
<feColorMatrix in="SourceAlpha" type="matrix" values="0 0 0 0 0 0 0 0 0 0 0 0 0 0 0 0 0 0 127 0" result="hardAlpha"/>
<feOffset dy="4"/>
<feGaussianBlur stdDeviation="2"/>
<feComposite in2="hardAlpha" operator="out"/>
<feColorMatrix type="matrix" values="0 0 0 0 0 0 0 0 0 0 0 0 0 0 0 0 0 0 0.25 0"/>
<feBlend mode="normal" in2="BackgroundImageFix" result="effect1_dropShadow_0_38"/>
<feBlend mode="normal" in="SourceGraphic" in2="effect1_dropShadow_0_38" result="shape"/>
</filter>
</defs>
</svg>
